<svg width="26" height="21" viewBox="0 0 26 21" fill="none" xmlns="http://www.w3.org/2000/svg">
<path d="M24.7108 6.28927C24.7108 6.42886 24.6553 6.56273 24.5566 6.66143C24.4579 6.76013 24.324 6.81558 24.1844 6.81558H22.6055V3.65771H24.1844C24.324 3.65771 24.4579 3.71317 24.5566 3.81187C24.6553 3.91057 24.7108 4.04444 24.7108 4.18403V6.28927Z" stroke="#00B5E2" stroke-linecap="round" stroke-linejoin="round"/>
<path d="M22.6055 7.86816H0.5" stroke="#00B5E2" stroke-linecap="round" stroke-linejoin="round"/>
<path d="M8.92188 2.60547H16.2904V4.71071H8.92188V2.60547Z" stroke="#00B5E2" stroke-linecap="round" stroke-linejoin="round"/>
<path d="M22.6055 2.60536V1.55273" stroke="#00B5E2" stroke-linecap="round" stroke-linejoin="round"/>
<path d="M5.76545 1.02631C5.76545 0.886725 5.70999 0.752855 5.61129 0.654153C5.51258 0.55545 5.37871 0.5 5.23912 0.5H4.18648C4.04689 0.5 3.91302 0.55545 3.81431 0.654153C3.71561 0.752855 3.66016 0.886725 3.66016 1.02631V2.60525H5.76545V1.02631Z" stroke="#00B5E2" stroke-linecap="round" stroke-linejoin="round"/>
<path d="M2.60529 2.60522C2.04693 2.60522 1.51144 2.82703 1.11663 3.22184C0.721807 3.61665 0.5 4.15212 0.5 4.71047V9.61253C0.500053 9.7149 0.529954 9.81502 0.586044 9.90065C0.642133 9.98628 0.721975 10.0537 0.815793 10.0946C1.59852 10.4381 2.23771 11.0426 2.62419 11.805C3.01066 12.5674 3.12044 13.4403 2.93477 14.2746L1.69475 19.8598C1.67774 19.9367 1.6782 20.0164 1.6961 20.0931C1.71401 20.1698 1.74889 20.2415 1.79819 20.3029C1.84748 20.3644 1.90994 20.4139 1.98094 20.448C2.05194 20.4821 2.12969 20.4998 2.20844 20.4998H7.86851L9.9738 11.0262H22.0792C22.2188 11.0262 22.3527 10.9708 22.4514 10.8721C22.5501 10.7734 22.6055 10.6395 22.6055 10.4999V2.60522H2.60529Z" stroke="#00B5E2" stroke-linecap="round" stroke-linejoin="round"/>
<path d="M15.2349 11.0264L14.6622 12.7442C14.5224 13.164 14.254 13.529 13.8949 13.7875C13.5359 14.046 13.1046 14.1848 12.6622 14.1842H9.26953" stroke="#00B5E2" stroke-linecap="round" stroke-linejoin="round"/>
<path d="M7.86719 20.4998H9.97248" stroke="#00B5E2" stroke-linecap="round" stroke-linejoin="round"/>
</svg>
