<svg width="40" height="40" viewBox="0 0 40 40" fill="none" xmlns="http://www.w3.org/2000/svg">
<path d="M38.3693 31.98C38.3693 32.8273 38.0327 33.6399 37.4336 34.239C36.8345 34.8381 36.0219 35.1747 35.1746 35.1747H4.82528C3.978 35.1747 3.16543 34.8381 2.56631 34.239C1.9672 33.6399 1.63062 32.8273 1.63062 31.98V6.42269C1.63062 5.57542 1.9672 4.76284 2.56631 4.16372C3.16543 3.56461 3.978 3.22803 4.82528 3.22803H35.1746C36.0219 3.22803 36.8345 3.56461 37.4336 4.16372C38.0327 4.76284 38.3693 5.57542 38.3693 6.42269V31.98Z" stroke="white" stroke-width="1.664" stroke-linecap="round" stroke-linejoin="round"/>
<path d="M1.63062 11.2147H38.3693" stroke="white" stroke-width="1.664" stroke-linecap="round" stroke-linejoin="round"/>
<path d="M7.22131 28.8396H10.416" stroke="white" stroke-width="1.664" stroke-linecap="round" stroke-linejoin="round"/>
<path d="M20 16.0593V19.2524" stroke="white" stroke-width="1.664" stroke-linecap="round" stroke-linejoin="round"/>
<path d="M10.9623 19.8003L13.2193 22.0573" stroke="white" stroke-width="1.664" stroke-linecap="round" stroke-linejoin="round"/>
<path d="M32.7818 28.8364H29.5887" stroke="white" stroke-width="1.664" stroke-linecap="round" stroke-linejoin="round"/>
<path d="M8.01526 3.22803V11.2147" stroke="white" stroke-width="1.664" stroke-linecap="round" stroke-linejoin="round"/>
<path d="M14.4045 3.22803V11.2147" stroke="white" stroke-width="1.664" stroke-linecap="round" stroke-linejoin="round"/>
<path d="M27.6672 21.4887C28.132 20.8497 27.9595 20.6612 27.2806 21.0622L20.1597 25.2711C19.4023 25.7733 18.8389 26.5188 18.5624 27.3844L18.4027 28.0729C18.3502 28.2414 18.338 28.4198 18.367 28.5939C18.396 28.7679 18.4654 28.9328 18.5696 29.0752C18.6738 29.2176 18.81 29.3336 18.9671 29.4139C19.1242 29.4942 19.298 29.5366 19.4745 29.5376L20.2604 29.5808C20.6954 29.5798 21.125 29.4829 21.5184 29.2971C21.9118 29.1113 22.2594 28.8411 22.5366 28.5057L27.6672 21.4887Z" stroke="white" stroke-width="1.664" stroke-linecap="round" stroke-linejoin="round"/>
</svg>
