<svg width="40" height="40" viewBox="0 0 40 40" fill="none" xmlns="http://www.w3.org/2000/svg">
<g clip-path="url(#clip0_7645_13672)">
<path d="M9.61735 8.02002H30.3827C30.3827 8.02002 31.98 8.02002 31.98 9.61735V30.3827C31.98 30.3827 31.98 31.98 30.3827 31.98H9.61735C9.61735 31.98 8.02002 31.98 8.02002 30.3827V9.61735C8.02002 9.61735 8.02002 8.02002 9.61735 8.02002Z" stroke="black" stroke-width="1.664" stroke-linecap="round" stroke-linejoin="round"/>
<path d="M20 1.63062V8.01995" stroke="black" stroke-width="1.664" stroke-linecap="round" stroke-linejoin="round"/>
<path d="M12.812 1.63062V8.01995" stroke="black" stroke-width="1.664" stroke-linecap="round" stroke-linejoin="round"/>
<path d="M27.188 1.63062V8.01995" stroke="black" stroke-width="1.664" stroke-linecap="round" stroke-linejoin="round"/>
<path d="M1.63062 20H8.01995" stroke="black" stroke-width="1.664" stroke-linecap="round" stroke-linejoin="round"/>
<path d="M1.63062 27.188H8.01995" stroke="black" stroke-width="1.664" stroke-linecap="round" stroke-linejoin="round"/>
<path d="M1.63062 12.812H8.01995" stroke="black" stroke-width="1.664" stroke-linecap="round" stroke-linejoin="round"/>
<path d="M20 38.3693V31.98" stroke="black" stroke-width="1.664" stroke-linecap="round" stroke-linejoin="round"/>
<path d="M27.188 38.3693V31.98" stroke="black" stroke-width="1.664" stroke-linecap="round" stroke-linejoin="round"/>
<path d="M12.812 38.3693V31.98" stroke="black" stroke-width="1.664" stroke-linecap="round" stroke-linejoin="round"/>
<path d="M38.3693 20H31.98" stroke="black" stroke-width="1.664" stroke-linecap="round" stroke-linejoin="round"/>
<path d="M38.3693 12.812H31.98" stroke="black" stroke-width="1.664" stroke-linecap="round" stroke-linejoin="round"/>
<path d="M38.3693 27.188H31.98" stroke="black" stroke-width="1.664" stroke-linecap="round" stroke-linejoin="round"/>
<path d="M14.4094 11.2146H25.5907C25.5907 11.2146 28.7854 11.2146 28.7854 14.4093V25.5906C28.7854 25.5906 28.7854 28.7853 25.5907 28.7853H14.4094C14.4094 28.7853 11.2147 28.7853 11.2147 25.5906V14.4093C11.2147 14.4093 11.2147 11.2146 14.4094 11.2146Z" stroke="black" stroke-width="1.664" stroke-linecap="round" stroke-linejoin="round"/>
<path d="M16.0067 16.0066H22.396" stroke="black" stroke-width="1.664" stroke-linecap="round" stroke-linejoin="round"/>
<path d="M16.0067 19.2014H19.2014" stroke="black" stroke-width="1.664" stroke-linecap="round" stroke-linejoin="round"/>
<path d="M20.7987 23.9934H23.9934" stroke="black" stroke-width="1.664" stroke-linecap="round" stroke-linejoin="round"/>
</g>
<defs>
<clipPath id="clip0_7645_13672">
<rect width="40" height="40" fill="white"/>
</clipPath>
</defs>
</svg>
