<svg width="20" height="20" viewBox="0 0 20 20" fill="none" xmlns="http://www.w3.org/2000/svg">
<g clip-path="url(#clip0_16147_5971)">
<path d="M11.1576 13.7935C10.4388 13.5539 9.48048 13.5539 8.76172 13.7935" stroke="#00B5E2" stroke-miterlimit="10" stroke-linecap="round" stroke-linejoin="round"/>
<path d="M4.37109 5.40784C5.08986 5.4877 5.96834 5.08839 6.28779 4.36963" stroke="#00B5E2" stroke-miterlimit="10" stroke-linecap="round" stroke-linejoin="round"/>
<path d="M15.5495 5.40784C14.8307 5.4877 13.9523 5.08839 13.6328 4.36963" stroke="#00B5E2" stroke-miterlimit="10" stroke-linecap="round" stroke-linejoin="round"/>
<path d="M10.0002 18.9844C14.9622 18.9844 18.9847 14.9619 18.9847 9.99991C18.9847 5.0379 14.9622 1.01538 10.0002 1.01538C5.03815 1.01538 1.01562 5.0379 1.01562 9.99991C1.01562 14.9619 5.03815 18.9844 10.0002 18.9844Z" stroke="#00B5E2" stroke-miterlimit="10" stroke-linecap="round" stroke-linejoin="round"/>
<path d="M13.7158 12.3558C15.1272 12.3558 16.2714 11.2116 16.2714 9.80023C16.2714 8.38881 15.1272 7.24463 13.7158 7.24463C12.3043 7.24463 11.1602 8.38881 11.1602 9.80023C11.1602 11.2116 12.3043 12.3558 13.7158 12.3558Z" stroke="#00B5E2" stroke-miterlimit="10" stroke-linecap="round" stroke-linejoin="round"/>
<path d="M6.1259 12.3558C7.53731 12.3558 8.6815 11.2116 8.6815 9.80023C8.6815 8.38881 7.53731 7.24463 6.1259 7.24463C4.71448 7.24463 3.57031 8.38881 3.57031 9.80023C3.57031 11.2116 4.71448 12.3558 6.1259 12.3558Z" stroke="#00B5E2" stroke-miterlimit="10" stroke-linecap="round" stroke-linejoin="round"/>
<path d="M14.5117 10.4395C15.3057 10.4395 15.9493 9.79589 15.9493 9.00198C15.9493 8.20805 15.3057 7.56445 14.5117 7.56445C13.7178 7.56445 13.0742 8.20805 13.0742 9.00198C13.0742 9.79589 13.7178 10.4395 14.5117 10.4395Z" stroke="#00B5E2" stroke-miterlimit="10" stroke-linecap="round" stroke-linejoin="round"/>
<path d="M6.92579 10.4395C7.71972 10.4395 8.36333 9.79589 8.36333 9.00198C8.36333 8.20805 7.71972 7.56445 6.92579 7.56445C6.13187 7.56445 5.48828 8.20805 5.48828 9.00198C5.48828 9.79589 6.13187 10.4395 6.92579 10.4395Z" stroke="#00B5E2" stroke-miterlimit="10" stroke-linecap="round" stroke-linejoin="round"/>
</g>
<defs>
<clipPath id="clip0_16147_5971">
<rect width="20" height="20" fill="white"/>
</clipPath>
</defs>
</svg>
