<svg width="40" height="40" viewBox="0 0 40 40" fill="none" xmlns="http://www.w3.org/2000/svg">
<path d="M10.0359 9.17802C12.5656 6.34973 16.0062 4.49699 19.7599 3.94166C23.5136 3.38634 27.3433 4.16352 30.5836 6.13819C33.8239 8.11286 36.27 11.1602 37.4971 14.7509C38.7242 18.3416 38.6547 22.2487 37.3006 25.7935C35.9465 29.3382 33.3935 32.2966 30.085 34.1548C26.7765 36.0129 22.9216 36.6533 19.19 35.9648C15.4585 35.2763 12.086 33.3023 9.65847 30.3858C7.23096 27.4693 5.90183 23.7945 5.90198 19.9999V18.2908" stroke="white" stroke-width="1.664" stroke-linecap="round" stroke-linejoin="round"/>
<path d="M10.1748 23.4182L5.90188 18.2908L1.63062 23.4182" stroke="white" stroke-width="1.664" stroke-linecap="round" stroke-linejoin="round"/>
<path d="M22.1356 11.1125V21.6534H28.5154" stroke="white" stroke-width="1.664" stroke-linecap="round" stroke-linejoin="round"/>
</svg>
