<svg width="40" height="40" viewBox="0 0 40 40" fill="none" xmlns="http://www.w3.org/2000/svg">
<path d="M7.22132 19.2014C7.22132 15.8123 8.56764 12.562 10.9641 10.1655C13.3606 7.76905 16.6109 6.42273 20 6.42273C23.3891 6.42273 26.6394 7.76905 29.0359 10.1655C31.4323 12.562 32.7787 15.8123 32.7787 19.2014V29.5841C32.7787 30.2195 33.0311 30.829 33.4804 31.2783C33.9298 31.7276 34.5392 31.9801 35.1747 31.9801H4.82532C5.46078 31.9801 6.07021 31.7276 6.51955 31.2783C6.96888 30.829 7.22132 30.2195 7.22132 29.5841V19.2014Z" stroke="white" stroke-width="1.664" stroke-linecap="round" stroke-linejoin="round"/>
<path d="M20 1.63232V6.42432" stroke="white" stroke-width="1.664" stroke-linecap="round" stroke-linejoin="round"/>
<path d="M23.9135 35.1746C23.7302 36.0773 23.2404 36.8889 22.5272 37.4718C21.814 38.0548 20.9212 38.3732 20 38.3732C19.0789 38.3732 18.186 38.0548 17.4728 37.4718C16.7596 36.8889 16.2699 36.0773 16.0865 35.1746" stroke="white" stroke-width="1.664" stroke-linecap="round" stroke-linejoin="round"/>
<path d="M23.9933 11.9639C25.1924 12.5588 26.2016 13.4768 26.9072 14.6144C27.6127 15.752 27.9866 17.0641 27.9866 18.4027" stroke="white" stroke-width="1.664" stroke-linecap="round" stroke-linejoin="round"/>
</svg>
