<svg width="256" height="70" viewBox="0 0 256 70" fill="none" xmlns="http://www.w3.org/2000/svg">
<g clip-path="url(#clip0_7616_6079)">
<path d="M0 44.4857C0 30.1867 9.70918 19.7714 25.95 19.7714C42.1908 19.7714 51.9 30.3633 51.9 44.4857C51.9 58.6082 42.1908 69.2 25.95 69.2C9.70918 69.2 0 58.6082 0 44.4857ZM37.248 44.4857C37.248 36.8949 33.0112 31.7755 26.1265 31.7755C19.2418 31.7755 15.0051 36.8949 15.0051 44.4857C15.0051 52.0765 19.2418 57.1959 26.1265 57.1959C33.0112 57.1959 37.248 52.0765 37.248 44.4857Z" fill="#F7941D"/>
<path d="M59.1377 45.0153C59.1377 30.5398 70.4357 19.7714 85.9704 19.7714C101.505 19.7714 97.7979 21.3602 101.858 24.1847V37.4245C97.4448 34.0704 92.3255 32.3051 87.2061 32.3051C79.6152 32.3051 74.3193 37.248 74.3193 44.6622C74.3193 52.0765 79.7918 56.6663 87.2061 56.6663C94.6203 56.6663 97.2683 54.7245 101.858 51.5469V64.7867C97.4448 67.6112 92.1489 69.2 85.7938 69.2C70.2591 69.2 59.1377 60.1969 59.1377 45.1918V45.0153Z" fill="#F7941D"/>
<path d="M159.054 67.6112H144.226V61.0796C139.812 65.8459 135.046 69.2 127.808 69.2C120.57 69.2 111.92 63.3745 111.92 52.253V21.1837H126.926V48.5459C126.926 54.5479 130.103 56.1367 133.81 56.1367C137.517 56.1367 141.048 54.3714 144.049 51.9V21.1837H159.054V67.6112Z" fill="#F7941D"/>
<path d="M176.354 33.0112H166.998L169.116 21.3602H176.354C176.354 9.17958 180.944 1.41223 194.184 1.41223C207.423 1.41223 199.832 1.76529 202.48 2.47142V13.9459C200.539 13.4163 198.95 13.0633 197.185 13.0633C192.771 13.0633 191.183 15.1816 191.183 19.7714V21.3602H203.363V33.0112H191.183V67.6112H176.354V33.0112Z" fill="white"/>
<path d="M211.131 21.1837H226.136V67.6112H211.131V21.1837Z" fill="white"/>
<path d="M238.846 21.1837H253.851V67.6112H238.846V21.1837Z" fill="white"/>
<path d="M209.542 7.94388C209.542 3.53061 212.719 0 218.545 0C224.37 0 227.724 3.35408 227.724 7.76735C227.724 12.1806 224.547 15.7112 218.721 15.7112C212.896 15.7112 209.542 12.1806 209.542 7.94388Z" fill="#F7941D"/>
<path d="M237.257 7.94388C237.257 3.53061 240.435 0 246.26 0C252.086 0 255.44 3.35408 255.44 7.76735C255.44 12.1806 252.262 15.7112 246.437 15.7112C240.611 15.7112 237.257 12.1806 237.257 7.94388Z" fill="#F7941D"/>
</g>
<defs>
<clipPath id="clip0_7616_6079">
<rect width="255.44" height="69.2" fill="white"/>
</clipPath>
</defs>
</svg>
