<svg width="30" height="30" viewBox="0 0 30 30" fill="none" xmlns="http://www.w3.org/2000/svg">
<g clip-path="url(#clip0_16619_5042)">
<path d="M28.7776 19.7919C28.7817 21.8841 28.0715 23.915 26.7645 25.5487C25.4575 27.1824 23.632 28.3211 21.59 28.7764C19.5479 28.3211 17.7225 27.1824 16.4155 25.5487C15.1085 23.915 14.3983 21.8841 14.4024 19.7919V15.8986C19.1941 12.5859 23.9859 12.5859 28.7776 15.8986V19.7919Z" stroke="black" stroke-width="1.2495" stroke-linecap="round" stroke-linejoin="round"/>
<path d="M25.1552 17.6289L21.6752 22.2697C21.5316 22.4603 21.3183 22.5862 21.082 22.6196C20.8457 22.6531 20.6058 22.5914 20.415 22.4482C20.3815 22.4229 20.3499 22.3953 20.3203 22.3656L18.5234 20.5686" stroke="black" stroke-width="1.2495" stroke-linecap="round" stroke-linejoin="round"/>
<path d="M4.40234 3.73047C5.19054 4.54839 6.13562 5.1989 7.18105 5.64309C8.22649 6.08728 9.35078 6.31602 10.4867 6.31562C11.64 6.31729 12.7815 6.08288 13.8409 5.6268" stroke="black" stroke-width="1.2495" stroke-linecap="round" stroke-linejoin="round"/>
<path d="M3.69922 6.31584C3.69922 6.98443 3.83091 7.64648 4.08677 8.26417C4.34262 8.88187 4.71764 9.44312 5.19041 9.91589C5.66317 10.3887 6.22442 10.7637 6.84212 11.0195C7.45982 11.2754 8.12186 11.4071 8.79045 11.4071C9.45904 11.4071 10.1211 11.2754 10.7388 11.0195C11.3565 10.7637 11.9177 10.3887 12.3905 9.91589C12.8633 9.44312 13.2383 8.88187 13.4941 8.26417C13.75 7.64648 13.8817 6.98443 13.8817 6.31584C13.8817 5.64725 13.75 4.98521 13.4941 4.36751C13.2383 3.74982 12.8633 3.18856 12.3905 2.7158C11.9177 2.24303 11.3565 1.86801 10.7388 1.61216C10.1211 1.3563 9.45904 1.22461 8.79045 1.22461C8.12186 1.22461 7.45982 1.3563 6.84212 1.61216C6.22442 1.86801 5.66317 2.24303 5.19041 2.7158C4.71764 3.18856 4.34262 3.74982 4.08677 4.36751C3.83091 4.98521 3.69922 5.64725 3.69922 6.31584Z" stroke="black" stroke-width="1.2495" stroke-linecap="round" stroke-linejoin="round"/>
<path d="M12.5504 14.0942C11.5529 13.5932 10.4654 13.2966 9.35171 13.2219C8.23801 13.1472 7.12061 13.2959 6.06523 13.6593C5.00984 14.0227 4.03776 14.5935 3.20613 15.338C2.37451 16.0825 1.70014 16.9858 1.22266 17.9947" stroke="black" stroke-width="1.2495" stroke-linecap="round" stroke-linejoin="round"/>
</g>
<defs>
<clipPath id="clip0_16619_5042">
<rect width="30" height="30" fill="white"/>
</clipPath>
</defs>
</svg>
