<svg width="30" height="31" viewBox="0 0 30 31" fill="none" xmlns="http://www.w3.org/2000/svg">
<g clip-path="url(#clip0_16089_36438)">
<path d="M28.1922 29.1672C28.2744 29.2852 28.3208 29.4256 28.3257 29.5709C28.3306 29.7161 28.2938 29.8596 28.2198 29.9831C28.1458 30.1067 28.038 30.2049 27.9101 30.2652C27.7822 30.3255 27.6398 30.3452 27.501 30.322H2.50097C2.36216 30.3452 2.21979 30.3255 2.09184 30.2652C1.9639 30.2049 1.85613 30.1067 1.78215 29.9831C1.70817 29.8596 1.67131 29.7161 1.67621 29.5709C1.68112 29.4256 1.72758 29.2852 1.80972 29.1672L14.4422 3.06134C14.7497 2.42584 15.2522 2.42584 15.5597 3.06134L28.1922 29.1672Z" stroke="#FCC400" stroke-width="2" stroke-linecap="round" stroke-linejoin="round"/>
<path d="M15 21.9313V12.8896" stroke="#FCC400" stroke-width="2" stroke-linecap="round" stroke-linejoin="round"/>
<path d="M14.989 24.5146C14.9481 24.5155 14.9079 24.5247 14.8706 24.5418C14.8332 24.5588 14.7996 24.5834 14.7715 24.6141C14.7435 24.6447 14.7216 24.6809 14.7072 24.7203C14.6928 24.7598 14.6862 24.8019 14.6877 24.844C14.6909 24.9289 14.7258 25.0092 14.7849 25.0682C14.8441 25.1271 14.923 25.1602 15.0052 25.1605H15.0115C15.0523 25.1597 15.0925 25.1504 15.1299 25.1334C15.1672 25.1163 15.2009 25.0917 15.2289 25.061C15.2569 25.0304 15.2788 24.9943 15.2932 24.9548C15.3076 24.9153 15.3142 24.8733 15.3127 24.8311C15.3095 24.7471 15.2754 24.6676 15.2173 24.6087C15.1592 24.5499 15.0815 24.5162 15.0002 24.5146H14.994" stroke="#FCC400" stroke-width="2" stroke-linecap="round" stroke-linejoin="round"/>
</g>
<defs>
<clipPath id="clip0_16089_36438">
<rect width="30" height="31" fill="white"/>
</clipPath>
</defs>
</svg>
