<svg width="47" height="47" viewBox="0 0 47 47" fill="none" xmlns="http://www.w3.org/2000/svg">
<path d="M23.4971 32.0629C24.0827 32.0629 24.6445 32.2953 25.0586 32.7094C25.4727 33.1235 25.7061 33.6852 25.7061 34.2709C25.7061 34.8566 25.4727 35.4183 25.0586 35.8324C24.6445 36.2464 24.0827 36.4789 23.4971 36.4789C22.9115 36.4788 22.3496 36.2465 21.9355 35.8324C21.5215 35.4183 21.2891 34.8565 21.2891 34.2709C21.2891 33.6853 21.5215 33.1235 21.9355 32.7094C22.3496 32.2953 22.9115 32.063 23.4971 32.0629ZM23.4971 16.3959C23.9528 16.3959 24.3906 16.5766 24.7129 16.8988C25.0352 17.2211 25.2158 17.6588 25.2158 18.1146V26.9271C25.2158 27.383 25.0352 27.8206 24.7129 28.1429C24.3906 28.4652 23.9528 28.6459 23.4971 28.6459C23.0415 28.6458 22.6044 28.465 22.2822 28.1429C21.9599 27.8206 21.7783 27.383 21.7783 26.9271V18.1146C21.7783 17.6588 21.9599 17.2211 22.2822 16.8988C22.6044 16.5768 23.0415 16.396 23.4971 16.3959Z" fill="#F7941D" stroke="#F7941D" stroke-width="0.5"/>
<path d="M19.1553 6.29016C21.0893 2.94632 25.9136 2.94632 27.8477 6.29016L45.4082 36.6525C47.3419 40.0003 44.9256 44.1876 41.0596 44.1876H5.94336C2.07539 44.1876 -0.338947 40.0002 1.59473 36.6525L19.1553 6.29016ZM23.502 6.97375C23.1806 6.97375 22.8645 7.05775 22.5859 7.2179C22.3073 7.37812 22.0757 7.60905 21.9141 7.88684L21.9131 7.88586L4.35547 38.2482C4.19545 38.5269 4.11108 38.8428 4.11133 39.1642C4.11165 39.4859 4.19666 39.8025 4.35742 40.0812C4.51812 40.3596 4.74923 40.5908 5.02734 40.7521C5.30565 40.9134 5.6217 40.9992 5.94336 41.0001H41.0596L41.1797 40.9952C41.4592 40.9759 41.7313 40.8931 41.9746 40.7521C42.2526 40.5909 42.4838 40.3595 42.6445 40.0812C42.8051 39.8029 42.89 39.4874 42.8906 39.1661C42.8912 38.8447 42.8072 38.5281 42.6475 38.2491L25.0889 7.88586C24.9272 7.60836 24.6954 7.37799 24.417 7.2179C24.1386 7.05785 23.8231 6.97383 23.502 6.97375Z" fill="#F7941D" stroke="#F7941D" stroke-width="0.25"/>
</svg>
